<svg aria-hidden="true" style="width:0;height:0;position:absolute;overflow:hidden" xmlns="http://www.w3.org/2000/svg"><defs><symbol id="icon-kebab" viewBox="0 0 32 32"><path fill="#1b1a1a" style="fill:var(--color1,#1b1a1a)" d="M21.406 26.406a.262.262 0 0 1-.156-.188 3.984 3.984 0 0 1 0-1l1.281-14.813c.114-1.418.239-2.835.375-4.25-3.537-.026-6.704 1.026-9.5 3.156-.625.145-.844-.094-.656-.719.472-.368.962-.712 1.469-1.031a14.086 14.086 0 0 0-6.5-1.531c.104 1.544.229 3.085.375 4.625.254 2.935.483 5.873.688 8.813.004.233.035.462.094.688.031-1.625.042-3.25.031-4.875a9.283 9.283 0 0 1 1.375-3.938c.165-.218.321-.447.469-.688a.66.66 0 0 1 .719-.031.507.507 0 0 1 .125.344 29.977 29.977 0 0 0-1.281 2.438 8.113 8.113 0 0 0-.5 2.125c-.031 4.958-.042 9.917-.031 14.875h11.063c.013-.563.045-1.126.094-1.688a.69.69 0 0 1 .281-.313c.446-.096.633.091.563.563a17.762 17.762 0 0 1-.188 1.813.72.72 0 0 1-.375.406c-3.875.096-7.75.117-11.625.063a.665.665 0 0 1-.594-.406 34.088 34.088 0 0 0-.25-1.813 981.984 981.984 0 0 0-.625-8.25 3.213 3.213 0 0 0-.156-.813c.037-.111.057-.225.063-.344-.222-2.114-.441-4.229-.656-6.344-.138-2.557-.335-5.11-.594-7.656.222-.352.378-.737.469-1.156a3.82 3.82 0 0 1 1.031-.969 1.48 1.48 0 0 1 .688-.219c.04-1.008.498-1.748 1.375-2.219.993-.246 1.826.025 2.5.813.125.042.25.042.375 0 .473-.7 1.129-1.106 1.969-1.219.638.043 1.086.355 1.344.938.12.071.245.082.375.031.713-.579 1.463-.621 2.25-.125.597.412.888.985.875 1.719a8.895 8.895 0 0 1 1.75.094c.139.144.243.311.313.5.193.102.391.196.594.281.207.352.363.727.469 1.125.223.063.421.167.594.313l.031.438c-.566 6.711-1.16 13.42-1.781 20.125-.08.342-.278.446-.594.313z"/><path fill="#139023" style="fill:var(--color2,#139023)" d="m17.281 3.469-.125 1.313c-.734-1.264-1.818-2.077-3.25-2.438.355-.594.876-.855 1.563-.781a.997.997 0 0 1 .344.406c.103.307.187.62.25.938a.616.616 0 0 0 .656.156l.75-.875c.519-.235 1.008-.182 1.469.156.179.24.252.511.219.813-.542-.01-1.084 0-1.625.031a.346.346 0 0 0-.25.281z"/><path fill="#148e23" style="fill:var(--color3,#148e23)" d="M10.719 1.781a1.677 1.677 0 0 1 1.438.563 4.996 4.996 0 0 0-2.188 1.125c-.204-.779.046-1.342.75-1.688z"/><path fill="#ce0c19" style="fill:var(--color4,#ce0c19)" d="M12.531 3.219c2.008-.012 3.393.904 4.156 2.75.05.13.04.255-.031.375-.48.183-.949.391-1.406.625a17.937 17.937 0 0 0-5.406-1.781c.589-1.079 1.485-1.736 2.688-1.969z"/><path fill="#183a1c" style="fill:var(--color5,#183a1c)" d="M17.281 3.469c.01.48 0 .959-.031 1.438a.272.272 0 0 1-.094-.125l.125-1.313z"/><path fill="#73602e" style="fill:var(--color6,#73602e)" d="M18.219 4.094c-.04.587.002 1.15.125 1.688-.044.056-.107.077-.188.063-.02-.595 0-1.178.063-1.75z"/><path fill="#facb4c" style="fill:var(--color7,#facb4c)" d="M18.219 4.094h2.938c.019.412-.001.818-.063 1.219-.933.077-1.849.233-2.75.469a5.774 5.774 0 0 1-.125-1.688z"/><path fill="#148e23" style="fill:var(--color3,#148e23)" d="M8.656 4.219a.802.802 0 0 1 .563.125l-.344.688c-.275.06-.556.081-.844.063.056-.403.264-.695.625-.875z"/><path fill="#157e22" style="fill:var(--color8,#157e22)" d="M22.094 4.781a.7.7 0 0 1 .188.438h-.188v-.438z"/><path fill="#ea8d41" style="fill:var(--color9,#ea8d41)" d="M22.531 10.406c-3.3.463-6.123 1.858-8.469 4.188-1.385 1.458-2.218 3.187-2.5 5.188-.031 3.542-.042 7.083-.031 10.625h-1.75c-.01-4.958 0-9.917.031-14.875.071-.732.238-1.44.5-2.125.393-.838.82-1.651 1.281-2.438a.509.509 0 0 0-.125-.344.662.662 0 0 0-.719.031c-.148.24-.304.469-.469.688a.27.27 0 0 0-.063-.219 10.945 10.945 0 0 0-2.125-.469c-.146-1.54-.271-3.081-.375-4.625 2.294-.009 4.46.501 6.5 1.531-.507.319-.996.663-1.469 1.031-.188.624.031.864.656.719 2.796-2.13 5.963-3.182 9.5-3.156a273.589 273.589 0 0 0-.375 4.25z"/><path fill="#fba740" style="fill:var(--color10,#fba740)" d="M8.094 10.656c.724.085 1.433.242 2.125.469a.278.278 0 0 1 .063.219 9.278 9.278 0 0 0-1.375 3.938l-.125 4.188a519.3 519.3 0 0 0-.688-8.813z"/><path fill="#fda940" style="fill:var(--color11,#fda940)" d="M22.531 10.406 21.25 25.219a3.984 3.984 0 0 0 0 1c.024.09.076.153.156.188-.069.666-.132 1.333-.188 2a.68.68 0 0 0-.281.313c-.049.562-.08 1.124-.094 1.688H11.53c-.01-3.542 0-7.083.031-10.625.282-2 1.115-3.73 2.5-5.188 2.346-2.329 5.169-3.725 8.469-4.188z"/><path fill="#c15801" style="fill:var(--color12,#c15801)" d="M19.281 13.156c.702.003.962.336.781 1-.377.41-.752.41-1.125 0-.186-.44-.071-.773.344-1z"/><path fill="#3e3020" style="fill:var(--color13,#3e3020)" d="M8.906 15.281c.01 1.625 0 3.25-.031 4.875a2.91 2.91 0 0 1-.094-.688l.125-4.188z"/><path fill="#c35901" style="fill:var(--color14,#c35901)" d="M16.531 21.156c.617.022.877.335.781.938-.24.368-.563.462-.969.281-.45-.488-.388-.894.188-1.219z"/></symbol><symbol id="icon-menu-hamburger" viewBox="0 0 32 32"><path fill="#fff" style="fill:var(--color1,#fff)" d="M26.733 14.667H5.266c-.7 0-1.267.567-1.267 1.267v.133c0 .7.567 1.267 1.267 1.267h21.467c.7 0 1.267-.567 1.267-1.267v-.133c0-.7-.567-1.267-1.267-1.267zM26.733 21.333H5.266c-.7 0-1.267.567-1.267 1.267v.133c0 .7.567 1.267 1.267 1.267h21.467c.7 0 1.267-.567 1.267-1.267V22.6c0-.7-.567-1.267-1.267-1.267zM26.733 8H5.266c-.7 0-1.267.567-1.267 1.267V9.4c0 .7.567 1.267 1.267 1.267h21.467c.7 0 1.267-.567 1.267-1.267v-.133C28 8.567 27.433 8 26.733 8z"/></symbol></defs></svg>