<svg aria-hidden="true" style="width:0;height:0;position:absolute;overflow:hidden" xmlns="http://www.w3.org/2000/svg"><defs><symbol id="icon-kebab" viewBox="0 0 32 32"><path fill="#1b1a1a" style="fill:var(--color1,#1b1a1a)" d="M21.406 26.406a.262.262 0 0 1-.156-.188 3.984 3.984 0 0 1 0-1l1.281-14.813c.114-1.418.239-2.835.375-4.25-3.537-.026-6.704 1.026-9.5 3.156-.625.145-.844-.094-.656-.719.472-.368.962-.712 1.469-1.031a14.086 14.086 0 0 0-6.5-1.531c.104 1.544.229 3.085.375 4.625.254 2.935.483 5.873.688 8.813.004.233.035.462.094.688.031-1.625.042-3.25.031-4.875a9.283 9.283 0 0 1 1.375-3.938c.165-.218.321-.447.469-.688a.66.66 0 0 1 .719-.031.507.507 0 0 1 .125.344 29.977 29.977 0 0 0-1.281 2.438 8.113 8.113 0 0 0-.5 2.125c-.031 4.958-.042 9.917-.031 14.875h11.063c.013-.563.045-1.126.094-1.688a.69.69 0 0 1 .281-.313c.446-.096.633.091.563.563a17.762 17.762 0 0 1-.188 1.813.72.72 0 0 1-.375.406c-3.875.096-7.75.117-11.625.063a.665.665 0 0 1-.594-.406 34.088 34.088 0 0 0-.25-1.813 981.984 981.984 0 0 0-.625-8.25 3.213 3.213 0 0 0-.156-.813c.037-.111.057-.225.063-.344-.222-2.114-.441-4.229-.656-6.344-.138-2.557-.335-5.11-.594-7.656.222-.352.378-.737.469-1.156a3.82 3.82 0 0 1 1.031-.969 1.48 1.48 0 0 1 .688-.219c.04-1.008.498-1.748 1.375-2.219.993-.246 1.826.025 2.5.813.125.042.25.042.375 0 .473-.7 1.129-1.106 1.969-1.219.638.043 1.086.355 1.344.938.12.071.245.082.375.031.713-.579 1.463-.621 2.25-.125.597.412.888.985.875 1.719a8.895 8.895 0 0 1 1.75.094c.139.144.243.311.313.5.193.102.391.196.594.281.207.352.363.727.469 1.125.223.063.421.167.594.313l.031.438c-.566 6.711-1.16 13.42-1.781 20.125-.08.342-.278.446-.594.313z"/><path fill="#139023" style="fill:var(--color2,#139023)" d="m17.281 3.469-.125 1.313c-.734-1.264-1.818-2.077-3.25-2.438.355-.594.876-.855 1.563-.781a.997.997 0 0 1 .344.406c.103.307.187.62.25.938a.616.616 0 0 0 .656.156l.75-.875c.519-.235 1.008-.182 1.469.156.179.24.252.511.219.813-.542-.01-1.084 0-1.625.031a.346.346 0 0 0-.25.281z"/><path fill="#148e23" style="fill:var(--color3,#148e23)" d="M10.719 1.781a1.677 1.677 0 0 1 1.438.563 4.996 4.996 0 0 0-2.188 1.125c-.204-.779.046-1.342.75-1.688z"/><path fill="#ce0c19" style="fill:var(--color4,#ce0c19)" d="M12.531 3.219c2.008-.012 3.393.904 4.156 2.75.05.13.04.255-.031.375-.48.183-.949.391-1.406.625a17.937 17.937 0 0 0-5.406-1.781c.589-1.079 1.485-1.736 2.688-1.969z"/><path fill="#183a1c" style="fill:var(--color5,#183a1c)" d="M17.281 3.469c.01.48 0 .959-.031 1.438a.272.272 0 0 1-.094-.125l.125-1.313z"/><path fill="#73602e" style="fill:var(--color6,#73602e)" d="M18.219 4.094c-.04.587.002 1.15.125 1.688-.044.056-.107.077-.188.063-.02-.595 0-1.178.063-1.75z"/><path fill="#facb4c" style="fill:var(--color7,#facb4c)" d="M18.219 4.094h2.938c.019.412-.001.818-.063 1.219-.933.077-1.849.233-2.75.469a5.774 5.774 0 0 1-.125-1.688z"/><path fill="#148e23" style="fill:var(--color3,#148e23)" d="M8.656 4.219a.802.802 0 0 1 .563.125l-.344.688c-.275.06-.556.081-.844.063.056-.403.264-.695.625-.875z"/><path fill="#157e22" style="fill:var(--color8,#157e22)" d="M22.094 4.781a.7.7 0 0 1 .188.438h-.188v-.438z"/><path fill="#ea8d41" style="fill:var(--color9,#ea8d41)" d="M22.531 10.406c-3.3.463-6.123 1.858-8.469 4.188-1.385 1.458-2.218 3.187-2.5 5.188-.031 3.542-.042 7.083-.031 10.625h-1.75c-.01-4.958 0-9.917.031-14.875.071-.732.238-1.44.5-2.125.393-.838.82-1.651 1.281-2.438a.509.509 0 0 0-.125-.344.662.662 0 0 0-.719.031c-.148.24-.304.469-.469.688a.27.27 0 0 0-.063-.219 10.945 10.945 0 0 0-2.125-.469c-.146-1.54-.271-3.081-.375-4.625 2.294-.009 4.46.501 6.5 1.531-.507.319-.996.663-1.469 1.031-.188.624.031.864.656.719 2.796-2.13 5.963-3.182 9.5-3.156a273.589 273.589 0 0 0-.375 4.25z"/><path fill="#fba740" style="fill:var(--color10,#fba740)" d="M8.094 10.656c.724.085 1.433.242 2.125.469a.278.278 0 0 1 .063.219 9.278 9.278 0 0 0-1.375 3.938l-.125 4.188a519.3 519.3 0 0 0-.688-8.813z"/><path fill="#fda940" style="fill:var(--color11,#fda940)" d="M22.531 10.406 21.25 25.219a3.984 3.984 0 0 0 0 1c.024.09.076.153.156.188-.069.666-.132 1.333-.188 2a.68.68 0 0 0-.281.313c-.049.562-.08 1.124-.094 1.688H11.53c-.01-3.542 0-7.083.031-10.625.282-2 1.115-3.73 2.5-5.188 2.346-2.329 5.169-3.725 8.469-4.188z"/><path fill="#c15801" style="fill:var(--color12,#c15801)" d="M19.281 13.156c.702.003.962.336.781 1-.377.41-.752.41-1.125 0-.186-.44-.071-.773.344-1z"/><path fill="#3e3020" style="fill:var(--color13,#3e3020)" d="M8.906 15.281c.01 1.625 0 3.25-.031 4.875a2.91 2.91 0 0 1-.094-.688l.125-4.188z"/><path fill="#c35901" style="fill:var(--color14,#c35901)" d="M16.531 21.156c.617.022.877.335.781.938-.24.368-.563.462-.969.281-.45-.488-.388-.894.188-1.219z"/></symbol><symbol id="icon-kebab-withoutfill" viewBox="0 0 32 32"><path fill="#" style="fill:var(--color1,#1b1a1a)" d="M21.406 26.406a.262.262 0 0 1-.156-.188 3.984 3.984 0 0 1 0-1l1.281-14.813c.114-1.418.239-2.835.375-4.25-3.537-.026-6.704 1.026-9.5 3.156-.625.145-.844-.094-.656-.719.472-.368.962-.712 1.469-1.031a14.086 14.086 0 0 0-6.5-1.531c.104 1.544.229 3.085.375 4.625.254 2.935.483 5.873.688 8.813.004.233.035.462.094.688.031-1.625.042-3.25.031-4.875a9.283 9.283 0 0 1 1.375-3.938c.165-.218.321-.447.469-.688a.66.66 0 0 1 .719-.031.507.507 0 0 1 .125.344 29.977 29.977 0 0 0-1.281 2.438 8.113 8.113 0 0 0-.5 2.125c-.031 4.958-.042 9.917-.031 14.875h11.063c.013-.563.045-1.126.094-1.688a.69.69 0 0 1 .281-.313c.446-.096.633.091.563.563a17.762 17.762 0 0 1-.188 1.813.72.72 0 0 1-.375.406c-3.875.096-7.75.117-11.625.063a.665.665 0 0 1-.594-.406 34.088 34.088 0 0 0-.25-1.813 981.984 981.984 0 0 0-.625-8.25 3.213 3.213 0 0 0-.156-.813c.037-.111.057-.225.063-.344-.222-2.114-.441-4.229-.656-6.344-.138-2.557-.335-5.11-.594-7.656.222-.352.378-.737.469-1.156a3.82 3.82 0 0 1 1.031-.969 1.48 1.48 0 0 1 .688-.219c.04-1.008.498-1.748 1.375-2.219.993-.246 1.826.025 2.5.813.125.042.25.042.375 0 .473-.7 1.129-1.106 1.969-1.219.638.043 1.086.355 1.344.938.12.071.245.082.375.031.713-.579 1.463-.621 2.25-.125.597.412.888.985.875 1.719a8.895 8.895 0 0 1 1.75.094c.139.144.243.311.313.5.193.102.391.196.594.281.207.352.363.727.469 1.125.223.063.421.167.594.313l.031.438c-.566 6.711-1.16 13.42-1.781 20.125-.08.342-.278.446-.594.313z"/><path style="fill:var(--color2,#000)" d="M19.281 13.156c.702.003.962.336.781 1-.377.41-.752.41-1.125 0-.186-.44-.071-.773.344-1zM8.906 15.281c.01 1.625 0 3.25-.031 4.875a2.91 2.91 0 0 1-.094-.688l.125-4.188zM16.531 21.156c.617.022.877.335.781.938-.24.368-.563.462-.969.281-.45-.488-.388-.894.188-1.219z"/></symbol><symbol id="icon-menu-hamburger" viewBox="0 0 32 32"><path fill="#fff" style="fill:var(--color1,#fff)" d="M26.733 14.667H5.266c-.7 0-1.267.567-1.267 1.267v.133c0 .7.567 1.267 1.267 1.267h21.467c.7 0 1.267-.567 1.267-1.267v-.133c0-.7-.567-1.267-1.267-1.267zM26.733 21.333H5.266c-.7 0-1.267.567-1.267 1.267v.133c0 .7.567 1.267 1.267 1.267h21.467c.7 0 1.267-.567 1.267-1.267V22.6c0-.7-.567-1.267-1.267-1.267zM26.733 8H5.266c-.7 0-1.267.567-1.267 1.267V9.4c0 .7.567 1.267 1.267 1.267h21.467c.7 0 1.267-.567 1.267-1.267v-.133C28 8.567 27.433 8 26.733 8z"/></symbol><symbol id="icon-facebook-1" viewBox="0 0 16 32"><path style="fill:var(--color1,#84a178)" d="M14.143 15.972h-4.034v14.865H3.997V15.972H1.09v-5.224h2.907V7.367c0-2.418 1.142-6.203 6.166-6.203l4.527.019v5.071h-3.285c-.539 0-1.296.271-1.296 1.424v3.075h4.567l-.534 5.219z"/></symbol><symbol id="icon-telegram-1" viewBox="0 0 44 32"><path style="fill:var(--color1,#84a178)" d="m17.344 21.048-.675 8.86c.966 0 1.384-.387 1.885-.852l4.527-4.038 9.381 6.412c1.72.895 2.933.424 3.397-1.477l6.157-26.929.002-.002c.546-2.374-.92-3.302-2.596-2.72L3.228 13.235c-2.47.895-2.433 2.18-.42 2.762l9.253 2.686L33.555 6.131c1.011-.625 1.931-.279 1.175.346l-17.386 14.57z"/></symbol><symbol id="icon-github-1" viewBox="0 0 32 32"><path style="fill:var(--color1,#84a178)" d="M16 0C7.212 0 0 7.212 0 16c0 7.499 5.262 14.312 12.25 16v-5.293c-.692.152-1.33.156-2.034-.052-.946-.279-1.714-.909-2.284-1.869-.364-.613-1.008-1.278-1.68-1.23l-.165-1.868c1.453-.124 2.711.886 3.457 2.14.332.558.713.884 1.203 1.029.473.14.982.072 1.574-.137.149-1.186.692-1.63 1.102-2.255v-.001c-4.167-.622-5.828-2.832-6.488-4.578-.874-2.317-.405-5.212 1.14-7.041.03-.036.084-.129.063-.194-.708-2.139.155-3.909.187-4.097.817.242.95-.243 3.551 1.337l.449.27c.188.112.129.048.317.034A13.544 13.544 0 0 1 16 7.723c1.136.015 2.273.178 3.404.484l.145.015c-.013-.002.04-.009.127-.062 3.248-1.968 3.132-1.324 4.003-1.608.032.188.883 1.987.182 4.099-.095.291 2.816 2.956 1.203 7.235-.659 1.746-2.32 3.957-6.487 4.578v.001c.534.814 1.176 1.247 1.173 2.927V32C26.738 30.312 32 23.499 32 16c0-8.788-7.212-16-16-16z"/></symbol><symbol id="icon-weight" viewBox="0 0 32 32"><path d="M14.177.547c-3.974.589-7.247 2.796-8.451 5.685-.384.913-.488 1.473-.488 2.573.007.812.037 1.114.162 1.552.259.863.443 1.301.827 1.919l.355.575-.399.489c-3.154 3.924-3.502 9.444-.872 13.793.982 1.632 2.585 3.234 4.152 4.169l.465.273 12.743-.108.303-.165c1.056-.597 2.549-1.926 3.383-3.004a12.61 12.61 0 0 0 2.423-5.621c.118-.74.118-2.933-.007-3.63-.377-2.149-1.182-3.989-2.453-5.621-.244-.309-.436-.568-.436-.589 0-.014.133-.237.288-.489a7.762 7.762 0 0 0 .864-1.962c.199-.719.199-2.516 0-3.234-.709-2.552-2.837-4.679-5.843-5.851C20.351.97 18.91.618 17.98.503c-.864-.101-2.999-.079-3.804.043zm4.499 1.171c3.945.769 6.833 3.184 7.365 6.16.118.668.044 1.804-.155 2.437-.199.618-.569 1.344-1.005 1.962-.177.252-.325.539-.325.632s.155.338.377.582c1.847 2.048 2.822 4.614 2.822 7.389-.007 3.155-1.219 5.922-3.553 8.093-.399.374-.968.841-1.271 1.042l-.554.374-12.211.05-.473-.302c-1.714-1.114-3.258-2.954-4.115-4.909-1.079-2.473-1.189-5.34-.31-7.913.465-1.337 1.086-2.429 2.031-3.579.384-.46.561-.733.561-.863 0-.108-.192-.46-.443-.827-.886-1.287-1.248-2.717-1.034-4.068.222-1.366.842-2.487 1.987-3.601 1.492-1.445 3.575-2.401 6.02-2.76 1.012-.151 3.25-.093 4.285.101z"/><path d="M14.509 2.983c-3.029.496-5.4 2.178-6.176 4.384-.177.496-.207.69-.207 1.402s.03.906.207 1.402c.111.316.318.755.458.977.384.618.554.64 1.315.18A11.949 11.949 0 0 1 13.91 9.84c.916-.187 2.674-.259 3.671-.144 1.559.18 3.25.74 4.602 1.538.384.223.776.41.872.41.561 0 1.278-1.617 1.278-2.875 0-2.796-2.674-5.189-6.464-5.786-.805-.129-2.585-.129-3.361 0zm3.657 1.15c1.271.273 2.438.791 3.317 1.473 1.182.913 1.817 2.185 1.714 3.414-.037.489-.222 1.15-.332 1.222-.029.014-.443-.158-.916-.388a14.721 14.721 0 0 0-3.228-1.1c-.687-.144-.975-.165-2.512-.158-1.514 0-1.832.022-2.489.158a13.254 13.254 0 0 0-3.117 1.064c-1.101.525-1.042.532-1.241-.115-.258-.841-.096-1.955.406-2.796.266-.446.997-1.186 1.529-1.553 1.012-.697 1.899-1.013 3.804-1.358.391-.072 2.563.029 3.066.137zM16.962 13.405c-.207.259-.207.503.007.712.14.137.281.173.79.208.99.072 1.935.359 2.785.848.606.359 1.529 1.229 1.943 1.854.613.898 1.034 2.185 1.034 3.134 0 .331.029.431.185.575.236.237.547.237.776 0 .163-.165.17-.208.125-.913-.207-3.479-3.184-6.382-6.744-6.577l-.739-.043-.163.201z"/></symbol><symbol id="icon-cow" viewBox="0 0 32 32"><path d="M6.168.192c-.261.226-1.006 1.781-1.274 2.631-.319 1.052-.427 1.842-.384 2.931.058 1.556.449 2.736 1.31 3.969.224.323.405.601.405.624 0 .015-.138.03-.311.03-.746 0-2.143.248-3.214.571-1.701.511-2.7 1.406-2.7 2.405 0 .353.319.955.659 1.263.659.594 2.1 1.158 3.649 1.428.536.098 2.128.263 2.483.271.065 0 .087.346.087 1.481 0 .977.036 1.736.109 2.202.261 1.669 1.071 3.435 2.143 4.683l.369.428-.246.398c-.362.564-.499.992-.543 1.631-.109 1.533.847 2.894 2.693 3.849 3.518 1.826 8.985 1.112 11.033-1.443.999-1.248 1.115-2.676.326-3.969l-.246-.398.442-.534c.825-.992 1.361-1.984 1.767-3.24.34-1.067.471-2.097.471-3.728 0-.744.022-1.36.058-1.36.333-.008 1.933-.18 2.44-.271 1.557-.271 2.968-.827 3.649-1.428.34-.308.659-.909.659-1.263 0-1.112-1.129-2.014-3.229-2.556-.688-.18-1.984-.398-2.613-.436l-.297-.023.326-.451c.405-.549.912-1.616 1.108-2.315.55-2.022.21-4.375-.97-6.622-.492-.932-.833-1.15-1.231-.782-.152.143-.217.338-.362 1.045-.449 2.247-1.281 4.029-2.498 5.344l-.536.586H10.247l-.478-.519C8.582 5.316 7.72 3.467 7.271 1.212 7.126.505 7.061.31 6.909.167c-.239-.218-.471-.21-.738.023zm.927 4.458c.384.842.862 1.631 1.426 2.36l.449.579-.471.353A4.73 4.73 0 0 0 7.326 9.31l-.138.248-.348-.474c-1.187-1.639-1.484-3.646-.854-5.728.304-1.007.297-1 .572-.128.13.421.376 1.06.536 1.421zM25.94 3.064c.297.894.413 1.609.413 2.533 0 1.368-.362 2.526-1.122 3.563l-.34.466-.253-.428a4.516 4.516 0 0 0-1.267-1.391c-.195-.128-.347-.256-.347-.271 0-.023.137-.195.311-.383.804-.894 1.665-2.503 2.092-3.886.13-.428.261-.782.282-.782s.13.263.232.579zm-3.699 5.494c.804.338 1.571 1.308 1.694 2.127.065.451.217.737.413.782.087.015.688.068 1.332.113 2.288.15 4.09.639 4.858 1.308.355.316.319.579-.109.902-.854.646-2.7 1.135-4.583 1.218-1.245.053-1.506.09-1.672.263-.123.128-.138.263-.138 1.624 0 1.841-.094 2.901-.326 3.758-.326 1.165-.97 2.405-1.723 3.285l-.311.361-.644-.383a7.994 7.994 0 0 0-2.389-.97c-2.744-.654-5.777-.256-7.819 1.03l-.471.301-.297-.353c-.405-.474-1.043-1.488-1.296-2.06-.557-1.293-.724-2.345-.724-4.66 0-2.247.116-2.082-1.549-2.172-2.128-.113-3.75-.496-4.771-1.143-.753-.481-.63-.909.42-1.413 1.006-.489 2.389-.782 4.308-.902 1.491-.098 1.528-.12 1.665-.842.203-1.09 1.006-1.992 2.02-2.277.253-.075 1.672-.09 6.016-.083l5.683.015.413.173zm-4.069 15.559c1.774.436 3.099 1.248 3.671 2.255.137.233.195.474.224.842.029.459.007.571-.166.947-.804 1.706-3.757 2.834-6.762 2.578-3.613-.301-5.987-2.315-5.053-4.292.507-1.067 2.223-2.09 4.033-2.39.297-.045.594-.098.652-.113s.71-.015 1.448 0c1.006.023 1.491.068 1.955.173z"/><path d="M10.99 12.321c-.449.15-.753.346-1.158.751-.355.338-.384.736-.087.977.275.225.536.195.869-.098.42-.368.746-.518 1.151-.518.405-.008.717.135 1.151.518.333.293.594.323.869.098.145-.12.188-.218.188-.443 0-.233-.051-.338-.304-.594-.717-.721-1.781-.999-2.679-.691zM19.432 12.313c-.463.173-1.057.564-1.296.857-.232.286-.239.609 0 .849.239.256.529.24.876-.045.854-.706 1.491-.729 2.281-.075.203.173.434.308.507.308.355 0 .644-.316.644-.691 0-.24-.601-.797-1.144-1.06-.601-.293-1.318-.346-1.868-.143zM12.04 26.224c-.21.203-.282.496-.174.729.08.188.203.263.702.398.224.06.319.135.398.323.101.248.109.248.666.27l.557.023v-.21c-.007-.301-.174-.736-.391-1.037-.253-.346-.695-.571-1.195-.616-.34-.03-.427-.015-.565.12zM18.954 26.171c-.362.098-.883.586-1.028.969-.065.173-.13.481-.137.684-.015.323.015.398.188.556.427.376.992.083.992-.518 0-.293.217-.496.601-.571.405-.075.55-.241.557-.624 0-.503-.449-.699-1.173-.496z"/></symbol></defs></svg>