<svg aria-hidden="true" style="width:0;height:0;position:absolute;overflow:hidden" xmlns="http://www.w3.org/2000/svg"><defs><symbol id="icon-kebab" viewBox="0 0 32 32"><path d="M14.806.75c-.406.119-.963.481-1.269.825-.219.238-.381.363-.469.363-.081 0-.281-.125-.469-.294-.731-.662-1.656-.844-2.394-.463-.363.181-.794.681-.95 1.087-.069.2-.131.4-.131.456 0 .05-.031.2-.075.331-.063.2-.113.25-.325.306-.606.169-1.394.925-1.544 1.469a1.807 1.807 0 0 1-.125.356c-.237.406-.244.237.044 3.625.15 1.769.275 3.469.275 3.781.006.306.037.731.063.938.056.363.237 2.275.375 3.906.037.431.112 1.087.162 1.462.056.369.088.781.075.906-.019.125-.006.3.019.4.063.225.225 2.275.275 3.425.019.5.063 1.006.094 1.125.081.275.313 3.038.313 3.719 0 .288.025.575.063.637.031.056.081.469.119.913.044.637.081.837.175.969.256.337.137.331 6.338.306 5.35-.025 5.738-.031 5.894-.131.094-.063.188-.163.206-.219.025-.056.063-.119.087-.137s.081-.519.125-1.113c.094-1.275.087-1.294-.462-1.269-.244.006-.331.256-.387 1.069a7.265 7.265 0 0 1-.075.794l-.031.144H9.877V22.98c0-6.575.012-7.531.1-8.05.188-1.1.681-2.3 1.344-3.287.369-.537.4-.806.144-1.012-.363-.287-.594-.137-1.119.713a9.862 9.862 0 0 0-1.294 3.125c-.113.488-.137.85-.169 2.781l-.037 2.219L8.483 15c-.206-2.456-.45-5.456-.55-6.656-.1-1.206-.181-2.213-.181-2.244 0-.056.913-.013 1.844.094 1.319.15 2.988.606 4.081 1.119.281.131.512.256.512.269s-.188.15-.419.306c-.238.156-.575.4-.75.544-.3.231-.331.281-.331.506 0 .188.037.269.162.369.219.169.394.162.656-.025 2.688-1.938 5.188-2.831 8.431-3.025.531-.031.975-.056.981-.05s-.075.938-.169 2.075c-1.05 12.012-1.506 17.369-1.519 17.637-.012.381.075.506.387.531.406.038.419-.031.694-3.181.137-1.538.525-6.031.875-9.988.344-3.95.625-7.3.625-7.444 0-.294-.113-.425-.419-.494-.175-.031-.212-.081-.275-.3a3.133 3.133 0 0 0-.256-.606c-.15-.275-.244-.369-.469-.469-.2-.087-.313-.188-.387-.344-.15-.325-.313-.375-1.175-.375h-.756l-.038-.175a8.144 8.144 0 0 1-.069-.431c-.106-.706-.887-1.35-1.75-1.438a1.646 1.646 0 0 0-1.131.325c-.256.2-.481.206-.569.012-.281-.619-1.081-.988-1.713-.794zm6.382 3.963v.588l-.544.075c-.644.088-2.031.356-2.244.438l-.15.063v-1.75h2.938v.588z"/><path d="M19.2 13.313a.627.627 0 0 0 .244 1.162c.488.069.875-.475.65-.906-.094-.188-.406-.381-.606-.381-.044 0-.175.056-.288.125zM16.294 21.425c-.181.188-.225.538-.106.769.081.137.381.306.563.306.544 0 .825-.681.444-1.069a.629.629 0 0 0-.9-.006z"/></symbol><symbol id="icon-menu-hamburger" viewBox="0 0 32 32"><path fill="#fff" style="fill:var(--color1,#fff)" d="M26.733 14.667H5.266c-.7 0-1.267.567-1.267 1.267v.133c0 .7.567 1.267 1.267 1.267h21.467c.7 0 1.267-.567 1.267-1.267v-.133c0-.7-.567-1.267-1.267-1.267zM26.733 21.333H5.266c-.7 0-1.267.567-1.267 1.267v.133c0 .7.567 1.267 1.267 1.267h21.467c.7 0 1.267-.567 1.267-1.267V22.6c0-.7-.567-1.267-1.267-1.267zM26.733 8H5.266c-.7 0-1.267.567-1.267 1.267V9.4c0 .7.567 1.267 1.267 1.267h21.467c.7 0 1.267-.567 1.267-1.267v-.133C28 8.567 27.433 8 26.733 8z"/></symbol></defs></svg>