<svg aria-hidden="true" style="position: absolute; width: 0; height: 0; overflow: hidden;" version="1.1" xmlns="http://www.w3.org/2000/svg" xmlns:xlink="http://www.w3.org/1999/xlink">
<defs>
<symbol id="icon-kebab" viewBox="0 0 32 32">
<path fill="#1b1a1a" style="fill: var(--color1, #1b1a1a)" d="M21.406 26.406c-0.081-0.035-0.133-0.097-0.156-0.188-0.042-0.333-0.042-0.667 0-1 0.427-4.938 0.854-9.875 1.281-14.813 0.114-1.418 0.239-2.835 0.375-4.25-3.537-0.026-6.704 1.026-9.5 3.156-0.625 0.145-0.844-0.094-0.656-0.719 0.472-0.368 0.962-0.712 1.469-1.031-2.040-1.030-4.206-1.541-6.5-1.531 0.104 1.544 0.229 3.085 0.375 4.625 0.254 2.935 0.483 5.873 0.688 8.813 0.004 0.233 0.035 0.462 0.094 0.688 0.031-1.625 0.042-3.25 0.031-4.875 0.16-1.418 0.618-2.73 1.375-3.938 0.165-0.218 0.321-0.447 0.469-0.688 0.232-0.152 0.472-0.163 0.719-0.031 0.084 0.098 0.126 0.213 0.125 0.344-0.461 0.787-0.888 1.599-1.281 2.438-0.262 0.685-0.429 1.393-0.5 2.125-0.031 4.958-0.042 9.917-0.031 14.875 0.583 0 1.167 0 1.75 0 3.104 0 6.208 0 9.313 0 0.013-0.563 0.045-1.126 0.094-1.688 0.062-0.135 0.156-0.239 0.281-0.313 0.446-0.096 0.633 0.091 0.563 0.563-0.032 0.608-0.094 1.212-0.188 1.813-0.071 0.185-0.196 0.321-0.375 0.406-3.875 0.096-7.75 0.117-11.625 0.063-0.279-0.020-0.477-0.155-0.594-0.406-0.068-0.612-0.151-1.216-0.25-1.813-0.197-2.752-0.405-5.502-0.625-8.25-0.017-0.278-0.069-0.549-0.156-0.813 0.037-0.111 0.057-0.225 0.063-0.344-0.222-2.114-0.441-4.229-0.656-6.344-0.138-2.557-0.335-5.11-0.594-7.656 0.222-0.352 0.378-0.737 0.469-1.156 0.284-0.388 0.628-0.711 1.031-0.969 0.212-0.13 0.441-0.203 0.688-0.219 0.040-1.008 0.498-1.748 1.375-2.219 0.993-0.246 1.826 0.025 2.5 0.813 0.125 0.042 0.25 0.042 0.375 0 0.473-0.7 1.129-1.106 1.969-1.219 0.638 0.043 1.086 0.355 1.344 0.938 0.12 0.071 0.245 0.082 0.375 0.031 0.713-0.579 1.463-0.621 2.25-0.125 0.597 0.412 0.888 0.985 0.875 1.719 0.588-0.026 1.172 0.005 1.75 0.094 0.139 0.144 0.243 0.311 0.313 0.5 0.193 0.102 0.391 0.196 0.594 0.281 0.207 0.352 0.363 0.727 0.469 1.125 0.223 0.063 0.421 0.167 0.594 0.313 0.010 0.146 0.021 0.292 0.031 0.438-0.566 6.711-1.16 13.42-1.781 20.125-0.080 0.342-0.278 0.446-0.594 0.313z"></path>
<path fill="#139023" style="fill: var(--color2, #139023)" d="M17.281 3.469c-0.042 0.438-0.083 0.875-0.125 1.313-0.734-1.264-1.818-2.077-3.25-2.438 0.355-0.594 0.876-0.855 1.563-0.781 0.151 0.104 0.266 0.239 0.344 0.406 0.103 0.307 0.187 0.62 0.25 0.938 0.182 0.181 0.401 0.233 0.656 0.156 0.25-0.292 0.5-0.583 0.75-0.875 0.519-0.235 1.008-0.182 1.469 0.156 0.179 0.24 0.252 0.511 0.219 0.813-0.542-0.010-1.084 0-1.625 0.031-0.141 0.047-0.224 0.14-0.25 0.281z"></path>
<path fill="#148e23" style="fill: var(--color3, #148e23)" d="M10.719 1.781c0.574-0.045 1.054 0.143 1.438 0.563-0.826 0.194-1.555 0.569-2.188 1.125-0.204-0.779 0.046-1.342 0.75-1.688z"></path>
<path fill="#ce0c19" style="fill: var(--color4, #ce0c19)" d="M12.531 3.219c2.008-0.012 3.393 0.904 4.156 2.75 0.050 0.13 0.040 0.255-0.031 0.375-0.48 0.183-0.949 0.391-1.406 0.625-1.708-0.882-3.51-1.475-5.406-1.781 0.589-1.079 1.485-1.736 2.688-1.969z"></path>
<path fill="#183a1c" style="fill: var(--color5, #183a1c)" d="M17.281 3.469c0.010 0.48 0 0.959-0.031 1.438-0.045-0.034-0.076-0.076-0.094-0.125 0.042-0.438 0.083-0.875 0.125-1.313z"></path>
<path fill="#73602e" style="fill: var(--color6, #73602e)" d="M18.219 4.094c-0.040 0.587 0.002 1.15 0.125 1.688-0.044 0.056-0.107 0.077-0.188 0.063-0.020-0.595 0-1.178 0.063-1.75z"></path>
<path fill="#facb4c" style="fill: var(--color7, #facb4c)" d="M18.219 4.094c0.979 0 1.958 0 2.938 0 0.019 0.412-0.001 0.818-0.063 1.219-0.933 0.077-1.849 0.233-2.75 0.469-0.123-0.538-0.165-1.1-0.125-1.688z"></path>
<path fill="#148e23" style="fill: var(--color3, #148e23)" d="M8.656 4.219c0.207-0.027 0.394 0.014 0.563 0.125-0.115 0.229-0.229 0.458-0.344 0.688-0.275 0.060-0.556 0.081-0.844 0.063 0.056-0.403 0.264-0.695 0.625-0.875z"></path>
<path fill="#157e22" style="fill: var(--color8, #157e22)" d="M22.094 4.781c0.112 0.12 0.175 0.266 0.188 0.438-0.063 0-0.125 0-0.188 0 0-0.146 0-0.292 0-0.438z"></path>
<path fill="#ea8d41" style="fill: var(--color9, #ea8d41)" d="M22.531 10.406c-3.3 0.463-6.123 1.858-8.469 4.188-1.385 1.458-2.218 3.187-2.5 5.188-0.031 3.542-0.042 7.083-0.031 10.625-0.583 0-1.167 0-1.75 0-0.010-4.958 0-9.917 0.031-14.875 0.071-0.732 0.238-1.44 0.5-2.125 0.393-0.838 0.82-1.651 1.281-2.438 0.001-0.131-0.041-0.245-0.125-0.344-0.247-0.131-0.486-0.121-0.719 0.031-0.148 0.24-0.304 0.469-0.469 0.688 0.011-0.083-0.010-0.156-0.063-0.219-0.692-0.227-1.401-0.383-2.125-0.469-0.146-1.54-0.271-3.081-0.375-4.625 2.294-0.009 4.46 0.501 6.5 1.531-0.507 0.319-0.996 0.663-1.469 1.031-0.188 0.624 0.031 0.864 0.656 0.719 2.796-2.13 5.963-3.182 9.5-3.156-0.136 1.415-0.261 2.832-0.375 4.25z"></path>
<path fill="#fba740" style="fill: var(--color10, #fba740)" d="M8.094 10.656c0.724 0.085 1.433 0.242 2.125 0.469 0.052 0.063 0.073 0.136 0.063 0.219-0.757 1.207-1.215 2.52-1.375 3.938-0.042 1.396-0.083 2.792-0.125 4.188-0.204-2.94-0.434-5.877-0.688-8.813z"></path>
<path fill="#fda940" style="fill: var(--color11, #fda940)" d="M22.531 10.406c-0.427 4.937-0.854 9.875-1.281 14.813-0.042 0.333-0.042 0.667 0 1 0.024 0.090 0.076 0.153 0.156 0.188-0.069 0.666-0.132 1.333-0.188 2-0.125 0.073-0.219 0.177-0.281 0.313-0.049 0.562-0.080 1.124-0.094 1.688-3.104 0-6.208 0-9.313 0-0.010-3.542 0-7.083 0.031-10.625 0.282-2 1.115-3.73 2.5-5.188 2.346-2.329 5.169-3.725 8.469-4.188z"></path>
<path fill="#c15801" style="fill: var(--color12, #c15801)" d="M19.281 13.156c0.702 0.003 0.962 0.336 0.781 1-0.377 0.41-0.752 0.41-1.125 0-0.186-0.44-0.071-0.773 0.344-1z"></path>
<path fill="#3e3020" style="fill: var(--color13, #3e3020)" d="M8.906 15.281c0.010 1.625 0 3.25-0.031 4.875-0.059-0.226-0.090-0.455-0.094-0.688 0.042-1.396 0.083-2.792 0.125-4.188z"></path>
<path fill="#c35901" style="fill: var(--color14, #c35901)" d="M16.531 21.156c0.617 0.022 0.877 0.335 0.781 0.938-0.24 0.368-0.563 0.462-0.969 0.281-0.45-0.488-0.388-0.894 0.188-1.219z"></path>
</symbol>
<symbol id="icon-kebab-withoutfill" viewBox="0 0 32 32">
<path fill="#" style="fill: var(--color1, #1b1a1a)" d="M21.406 26.406c-0.081-0.035-0.133-0.097-0.156-0.188-0.042-0.333-0.042-0.667 0-1 0.427-4.938 0.854-9.875 1.281-14.813 0.114-1.418 0.239-2.835 0.375-4.25-3.537-0.026-6.704 1.026-9.5 3.156-0.625 0.145-0.844-0.094-0.656-0.719 0.472-0.368 0.962-0.712 1.469-1.031-2.040-1.030-4.206-1.541-6.5-1.531 0.104 1.544 0.229 3.085 0.375 4.625 0.254 2.935 0.483 5.873 0.688 8.813 0.004 0.233 0.035 0.462 0.094 0.688 0.031-1.625 0.042-3.25 0.031-4.875 0.16-1.418 0.618-2.73 1.375-3.938 0.165-0.218 0.321-0.447 0.469-0.688 0.232-0.152 0.472-0.163 0.719-0.031 0.084 0.098 0.126 0.213 0.125 0.344-0.461 0.787-0.888 1.599-1.281 2.438-0.262 0.685-0.429 1.393-0.5 2.125-0.031 4.958-0.042 9.917-0.031 14.875 0.583 0 1.167 0 1.75 0 3.104 0 6.208 0 9.313 0 0.013-0.563 0.045-1.126 0.094-1.688 0.062-0.135 0.156-0.239 0.281-0.313 0.446-0.096 0.633 0.091 0.563 0.563-0.032 0.608-0.094 1.212-0.188 1.813-0.071 0.185-0.196 0.321-0.375 0.406-3.875 0.096-7.75 0.117-11.625 0.063-0.279-0.020-0.477-0.155-0.594-0.406-0.068-0.612-0.151-1.216-0.25-1.813-0.197-2.752-0.405-5.502-0.625-8.25-0.017-0.278-0.069-0.549-0.156-0.813 0.037-0.111 0.057-0.225 0.063-0.344-0.222-2.114-0.441-4.229-0.656-6.344-0.138-2.557-0.335-5.11-0.594-7.656 0.222-0.352 0.378-0.737 0.469-1.156 0.284-0.388 0.628-0.711 1.031-0.969 0.212-0.13 0.441-0.203 0.688-0.219 0.040-1.008 0.498-1.748 1.375-2.219 0.993-0.246 1.826 0.025 2.5 0.813 0.125 0.042 0.25 0.042 0.375 0 0.473-0.7 1.129-1.106 1.969-1.219 0.638 0.043 1.086 0.355 1.344 0.938 0.12 0.071 0.245 0.082 0.375 0.031 0.713-0.579 1.463-0.621 2.25-0.125 0.597 0.412 0.888 0.985 0.875 1.719 0.588-0.026 1.172 0.005 1.75 0.094 0.139 0.144 0.243 0.311 0.313 0.5 0.193 0.102 0.391 0.196 0.594 0.281 0.207 0.352 0.363 0.727 0.469 1.125 0.223 0.063 0.421 0.167 0.594 0.313 0.010 0.146 0.021 0.292 0.031 0.438-0.566 6.711-1.16 13.42-1.781 20.125-0.080 0.342-0.278 0.446-0.594 0.313z"></path>
<path style="fill: var(--color2, #000)" d="M19.281 13.156c0.702 0.003 0.962 0.336 0.781 1-0.377 0.41-0.752 0.41-1.125 0-0.186-0.44-0.071-0.773 0.344-1z"></path>
<path style="fill: var(--color2, #000)" d="M8.906 15.281c0.010 1.625 0 3.25-0.031 4.875-0.059-0.226-0.090-0.455-0.094-0.688 0.042-1.396 0.083-2.792 0.125-4.188z"></path>
<path style="fill: var(--color2, #000)" d="M16.531 21.156c0.617 0.022 0.877 0.335 0.781 0.938-0.24 0.368-0.563 0.462-0.969 0.281-0.45-0.488-0.388-0.894 0.188-1.219z"></path>
</symbol>
<symbol id="icon-menu-hamburger" viewBox="0 0 32 32">
<path fill="#fff" style="fill: var(--color1, #fff)" d="M26.733 14.667h-21.467c-0.7 0-1.267 0.567-1.267 1.267v0.133c0 0.7 0.567 1.267 1.267 1.267h21.467c0.7 0 1.267-0.567 1.267-1.267v-0.133c0-0.7-0.567-1.267-1.267-1.267z"></path>
<path fill="#fff" style="fill: var(--color1, #fff)" d="M26.733 21.333h-21.467c-0.7 0-1.267 0.567-1.267 1.267v0.133c0 0.7 0.567 1.267 1.267 1.267h21.467c0.7 0 1.267-0.567 1.267-1.267v-0.133c0-0.7-0.567-1.267-1.267-1.267z"></path>
<path fill="#fff" style="fill: var(--color1, #fff)" d="M26.733 8h-21.467c-0.7 0-1.267 0.567-1.267 1.267v0.133c0 0.7 0.567 1.267 1.267 1.267h21.467c0.7 0 1.267-0.567 1.267-1.267v-0.133c0-0.7-0.567-1.267-1.267-1.267z"></path>
</symbol>
<symbol id="icon-facebook-1" viewBox="0 0 16 32">
<path style="fill: var(--color1, #84a178)" d="M14.143 15.972h-4.034v14.865h-6.112v-14.865h-2.907v-5.224h2.907v-3.381c0-2.418 1.142-6.203 6.166-6.203l4.527 0.019v5.071h-3.285c-0.539 0-1.296 0.271-1.296 1.424v3.075h4.567l-0.534 5.219z"></path>
</symbol>
<symbol id="icon-telegram-1" viewBox="0 0 44 32">
<path style="fill: var(--color1, #84a178)" d="M17.344 21.048l-0.675 8.86c0.966 0 1.384-0.387 1.885-0.852l4.527-4.038 9.381 6.412c1.72 0.895 2.933 0.424 3.397-1.477l6.157-26.929 0.002-0.002c0.546-2.374-0.92-3.302-2.596-2.72l-36.194 12.933c-2.47 0.895-2.433 2.18-0.42 2.762l9.253 2.686 21.494-12.552c1.011-0.625 1.931-0.279 1.175 0.346l-17.386 14.57z"></path>
</symbol>
<symbol id="icon-github-1" viewBox="0 0 32 32">
<path style="fill: var(--color1, #84a178)" d="M16 0c-8.788 0-16 7.212-16 16 0 7.499 5.262 14.312 12.25 16v-5.293c-0.692 0.152-1.33 0.156-2.034-0.052-0.946-0.279-1.714-0.909-2.284-1.869-0.364-0.613-1.008-1.278-1.68-1.23l-0.165-1.868c1.453-0.124 2.711 0.886 3.457 2.14 0.332 0.558 0.713 0.884 1.203 1.029 0.473 0.14 0.982 0.072 1.574-0.137 0.149-1.186 0.692-1.63 1.102-2.255v-0.001c-4.167-0.622-5.828-2.832-6.488-4.578-0.874-2.317-0.405-5.212 1.14-7.041 0.030-0.036 0.084-0.129 0.063-0.194-0.708-2.139 0.155-3.909 0.187-4.097 0.817 0.242 0.95-0.243 3.551 1.337l0.449 0.27c0.188 0.112 0.129 0.048 0.317 0.034 1.086-0.295 2.23-0.458 3.358-0.472 1.136 0.015 2.273 0.178 3.404 0.484l0.145 0.015c-0.013-0.002 0.040-0.009 0.127-0.062 3.248-1.968 3.132-1.324 4.003-1.608 0.032 0.188 0.883 1.987 0.182 4.099-0.095 0.291 2.816 2.956 1.203 7.235-0.659 1.746-2.32 3.957-6.487 4.578v0.001c0.534 0.814 1.176 1.247 1.173 2.927v6.608c6.988-1.688 12.25-8.501 12.25-16 0-8.788-7.212-16-16-16v0z"></path>
</symbol>
<symbol id="icon-weight" viewBox="0 0 32 32">
<path d="M14.177 0.547c-3.974 0.589-7.247 2.796-8.451 5.685-0.384 0.913-0.488 1.473-0.488 2.573 0.007 0.812 0.037 1.114 0.162 1.552 0.259 0.863 0.443 1.301 0.827 1.919l0.355 0.575-0.399 0.489c-3.154 3.924-3.502 9.444-0.872 13.793 0.982 1.632 2.585 3.234 4.152 4.169l0.465 0.273 12.743-0.108 0.303-0.165c1.056-0.597 2.549-1.926 3.383-3.004 1.256-1.639 2.076-3.551 2.423-5.621 0.118-0.74 0.118-2.933-0.007-3.63-0.377-2.149-1.182-3.989-2.453-5.621-0.244-0.309-0.436-0.568-0.436-0.589 0-0.014 0.133-0.237 0.288-0.489 0.362-0.575 0.687-1.315 0.864-1.962 0.199-0.719 0.199-2.516 0-3.234-0.709-2.552-2.837-4.679-5.843-5.851-0.842-0.331-2.283-0.683-3.213-0.798-0.864-0.101-2.999-0.079-3.804 0.043zM18.676 1.718c3.945 0.769 6.833 3.184 7.365 6.16 0.118 0.668 0.044 1.804-0.155 2.437-0.199 0.618-0.569 1.344-1.005 1.962-0.177 0.252-0.325 0.539-0.325 0.632s0.155 0.338 0.377 0.582c1.847 2.048 2.822 4.614 2.822 7.389-0.007 3.155-1.219 5.922-3.553 8.093-0.399 0.374-0.968 0.841-1.271 1.042l-0.554 0.374-12.211 0.050-0.473-0.302c-1.714-1.114-3.258-2.954-4.115-4.909-1.079-2.473-1.189-5.34-0.31-7.913 0.465-1.337 1.086-2.429 2.031-3.579 0.384-0.46 0.561-0.733 0.561-0.863 0-0.108-0.192-0.46-0.443-0.827-0.886-1.287-1.248-2.717-1.034-4.068 0.222-1.366 0.842-2.487 1.987-3.601 1.492-1.445 3.575-2.401 6.020-2.76 1.012-0.151 3.25-0.093 4.285 0.101z"></path>
<path d="M14.509 2.983c-3.029 0.496-5.4 2.178-6.176 4.384-0.177 0.496-0.207 0.69-0.207 1.402s0.030 0.906 0.207 1.402c0.111 0.316 0.318 0.755 0.458 0.977 0.384 0.618 0.554 0.64 1.315 0.18 1.138-0.697 2.445-1.208 3.804-1.488 0.916-0.187 2.674-0.259 3.671-0.144 1.559 0.18 3.25 0.74 4.602 1.538 0.384 0.223 0.776 0.41 0.872 0.41 0.561 0 1.278-1.617 1.278-2.875 0-2.796-2.674-5.189-6.464-5.786-0.805-0.129-2.585-0.129-3.361 0zM18.166 4.133c1.271 0.273 2.438 0.791 3.317 1.473 1.182 0.913 1.817 2.185 1.714 3.414-0.037 0.489-0.222 1.15-0.332 1.222-0.029 0.014-0.443-0.158-0.916-0.388-0.983-0.474-2.098-0.855-3.228-1.1-0.687-0.144-0.975-0.165-2.512-0.158-1.514 0-1.832 0.022-2.489 0.158-1.138 0.244-2.024 0.546-3.117 1.064-1.101 0.525-1.042 0.532-1.241-0.115-0.258-0.841-0.096-1.955 0.406-2.796 0.266-0.446 0.997-1.186 1.529-1.553 1.012-0.697 1.899-1.013 3.804-1.358 0.391-0.072 2.563 0.029 3.066 0.137z"></path>
<path d="M16.962 13.405c-0.207 0.259-0.207 0.503 0.007 0.712 0.14 0.137 0.281 0.173 0.79 0.208 0.99 0.072 1.935 0.359 2.785 0.848 0.606 0.359 1.529 1.229 1.943 1.854 0.613 0.898 1.034 2.185 1.034 3.134 0 0.331 0.029 0.431 0.185 0.575 0.236 0.237 0.547 0.237 0.776 0 0.163-0.165 0.17-0.208 0.125-0.913-0.207-3.479-3.184-6.382-6.744-6.577l-0.739-0.043-0.163 0.201z"></path>
</symbol>
<symbol id="icon-cow" viewBox="0 0 32 32">
<path d="M6.168 0.192c-0.261 0.226-1.006 1.781-1.274 2.631-0.319 1.052-0.427 1.842-0.384 2.931 0.058 1.556 0.449 2.736 1.31 3.969 0.224 0.323 0.405 0.601 0.405 0.624 0 0.015-0.138 0.030-0.311 0.030-0.746 0-2.143 0.248-3.214 0.571-1.701 0.511-2.7 1.406-2.7 2.405 0 0.353 0.319 0.955 0.659 1.263 0.659 0.594 2.1 1.158 3.649 1.428 0.536 0.098 2.128 0.263 2.483 0.271 0.065 0 0.087 0.346 0.087 1.481 0 0.977 0.036 1.736 0.109 2.202 0.261 1.669 1.071 3.435 2.143 4.683l0.369 0.428-0.246 0.398c-0.362 0.564-0.499 0.992-0.543 1.631-0.109 1.533 0.847 2.894 2.693 3.849 3.518 1.826 8.985 1.112 11.033-1.443 0.999-1.248 1.115-2.676 0.326-3.969l-0.246-0.398 0.442-0.534c0.825-0.992 1.361-1.984 1.767-3.24 0.34-1.067 0.471-2.097 0.471-3.728 0-0.744 0.022-1.36 0.058-1.36 0.333-0.008 1.933-0.18 2.44-0.271 1.557-0.271 2.968-0.827 3.649-1.428 0.34-0.308 0.659-0.909 0.659-1.263 0-1.112-1.129-2.014-3.229-2.556-0.688-0.18-1.984-0.398-2.613-0.436l-0.297-0.023 0.326-0.451c0.405-0.549 0.912-1.616 1.108-2.315 0.55-2.022 0.21-4.375-0.97-6.622-0.492-0.932-0.833-1.15-1.231-0.782-0.152 0.143-0.217 0.338-0.362 1.045-0.449 2.247-1.281 4.029-2.498 5.344l-0.536 0.586h-11.453l-0.478-0.519c-1.187-1.308-2.049-3.157-2.498-5.412-0.145-0.707-0.21-0.902-0.362-1.045-0.239-0.218-0.471-0.21-0.738 0.023zM7.095 4.65c0.384 0.842 0.862 1.631 1.426 2.36l0.449 0.579-0.471 0.353c-0.442 0.338-0.854 0.819-1.173 1.368l-0.138 0.248-0.348-0.474c-1.187-1.639-1.484-3.646-0.854-5.728 0.304-1.007 0.297-1 0.572-0.128 0.13 0.421 0.376 1.060 0.536 1.421zM25.94 3.064c0.297 0.894 0.413 1.609 0.413 2.533 0 1.368-0.362 2.526-1.122 3.563l-0.34 0.466-0.253-0.428c-0.297-0.526-0.804-1.075-1.267-1.391-0.195-0.128-0.347-0.256-0.347-0.271 0-0.023 0.137-0.195 0.311-0.383 0.804-0.894 1.665-2.503 2.092-3.886 0.13-0.428 0.261-0.782 0.282-0.782s0.13 0.263 0.232 0.579zM22.241 8.558c0.804 0.338 1.571 1.308 1.694 2.127 0.065 0.451 0.217 0.737 0.413 0.782 0.087 0.015 0.688 0.068 1.332 0.113 2.288 0.15 4.090 0.639 4.858 1.308 0.355 0.316 0.319 0.579-0.109 0.902-0.854 0.646-2.7 1.135-4.583 1.218-1.245 0.053-1.506 0.090-1.672 0.263-0.123 0.128-0.138 0.263-0.138 1.624 0 1.841-0.094 2.901-0.326 3.758-0.326 1.165-0.97 2.405-1.723 3.285l-0.311 0.361-0.644-0.383c-0.782-0.466-1.513-0.767-2.389-0.97-2.744-0.654-5.777-0.256-7.819 1.030l-0.471 0.301-0.297-0.353c-0.405-0.474-1.043-1.488-1.296-2.060-0.557-1.293-0.724-2.345-0.724-4.66 0-2.247 0.116-2.082-1.549-2.172-2.128-0.113-3.75-0.496-4.771-1.143-0.753-0.481-0.63-0.909 0.42-1.413 1.006-0.489 2.389-0.782 4.308-0.902 1.491-0.098 1.528-0.12 1.665-0.842 0.203-1.090 1.006-1.992 2.020-2.277 0.253-0.075 1.672-0.090 6.016-0.083l5.683 0.015 0.413 0.173zM18.172 24.117c1.774 0.436 3.099 1.248 3.671 2.255 0.137 0.233 0.195 0.474 0.224 0.842 0.029 0.459 0.007 0.571-0.166 0.947-0.804 1.706-3.757 2.834-6.762 2.578-3.613-0.301-5.987-2.315-5.053-4.292 0.507-1.067 2.223-2.090 4.033-2.39 0.297-0.045 0.594-0.098 0.652-0.113s0.71-0.015 1.448 0c1.006 0.023 1.491 0.068 1.955 0.173z"></path>
<path d="M10.99 12.321c-0.449 0.15-0.753 0.346-1.158 0.751-0.355 0.338-0.384 0.736-0.087 0.977 0.275 0.225 0.536 0.195 0.869-0.098 0.42-0.368 0.746-0.518 1.151-0.518 0.405-0.008 0.717 0.135 1.151 0.518 0.333 0.293 0.594 0.323 0.869 0.098 0.145-0.12 0.188-0.218 0.188-0.443 0-0.233-0.051-0.338-0.304-0.594-0.717-0.721-1.781-0.999-2.679-0.691z"></path>
<path d="M19.432 12.313c-0.463 0.173-1.057 0.564-1.296 0.857-0.232 0.286-0.239 0.609 0 0.849 0.239 0.256 0.529 0.24 0.876-0.045 0.854-0.706 1.491-0.729 2.281-0.075 0.203 0.173 0.434 0.308 0.507 0.308 0.355 0 0.644-0.316 0.644-0.691 0-0.24-0.601-0.797-1.144-1.060-0.601-0.293-1.318-0.346-1.868-0.143z"></path>
<path d="M12.040 26.224c-0.21 0.203-0.282 0.496-0.174 0.729 0.080 0.188 0.203 0.263 0.702 0.398 0.224 0.060 0.319 0.135 0.398 0.323 0.101 0.248 0.109 0.248 0.666 0.27l0.557 0.023v-0.21c-0.007-0.301-0.174-0.736-0.391-1.037-0.253-0.346-0.695-0.571-1.195-0.616-0.34-0.030-0.427-0.015-0.565 0.12z"></path>
<path d="M18.954 26.171c-0.362 0.098-0.883 0.586-1.028 0.969-0.065 0.173-0.13 0.481-0.137 0.684-0.015 0.323 0.015 0.398 0.188 0.556 0.427 0.376 0.992 0.083 0.992-0.518 0-0.293 0.217-0.496 0.601-0.571 0.405-0.075 0.55-0.241 0.557-0.624 0-0.503-0.449-0.699-1.173-0.496z"></path>
</symbol>
</defs>
</svg>
