<svg aria-hidden="true" style="position: absolute; width: 0; height: 0; overflow: hidden;" version="1.1" xmlns="http://www.w3.org/2000/svg" xmlns:xlink="http://www.w3.org/1999/xlink">
<defs>
<symbol id="icon-kebab" viewBox="0 0 32 32">
<path fill="#1b1a1a" style="fill: var(--color1, #1b1a1a)" d="M21.406 26.406c-0.081-0.035-0.133-0.097-0.156-0.188-0.042-0.333-0.042-0.667 0-1 0.427-4.938 0.854-9.875 1.281-14.813 0.114-1.418 0.239-2.835 0.375-4.25-3.537-0.026-6.704 1.026-9.5 3.156-0.625 0.145-0.844-0.094-0.656-0.719 0.472-0.368 0.962-0.712 1.469-1.031-2.040-1.030-4.206-1.541-6.5-1.531 0.104 1.544 0.229 3.085 0.375 4.625 0.254 2.935 0.483 5.873 0.688 8.813 0.004 0.233 0.035 0.462 0.094 0.688 0.031-1.625 0.042-3.25 0.031-4.875 0.16-1.418 0.618-2.73 1.375-3.938 0.165-0.218 0.321-0.447 0.469-0.688 0.232-0.152 0.472-0.163 0.719-0.031 0.084 0.098 0.126 0.213 0.125 0.344-0.461 0.787-0.888 1.599-1.281 2.438-0.262 0.685-0.429 1.393-0.5 2.125-0.031 4.958-0.042 9.917-0.031 14.875 0.583 0 1.167 0 1.75 0 3.104 0 6.208 0 9.313 0 0.013-0.563 0.045-1.126 0.094-1.688 0.062-0.135 0.156-0.239 0.281-0.313 0.446-0.096 0.633 0.091 0.563 0.563-0.032 0.608-0.094 1.212-0.188 1.813-0.071 0.185-0.196 0.321-0.375 0.406-3.875 0.096-7.75 0.117-11.625 0.063-0.279-0.020-0.477-0.155-0.594-0.406-0.068-0.612-0.151-1.216-0.25-1.813-0.197-2.752-0.405-5.502-0.625-8.25-0.017-0.278-0.069-0.549-0.156-0.813 0.037-0.111 0.057-0.225 0.063-0.344-0.222-2.114-0.441-4.229-0.656-6.344-0.138-2.557-0.335-5.11-0.594-7.656 0.222-0.352 0.378-0.737 0.469-1.156 0.284-0.388 0.628-0.711 1.031-0.969 0.212-0.13 0.441-0.203 0.688-0.219 0.040-1.008 0.498-1.748 1.375-2.219 0.993-0.246 1.826 0.025 2.5 0.813 0.125 0.042 0.25 0.042 0.375 0 0.473-0.7 1.129-1.106 1.969-1.219 0.638 0.043 1.086 0.355 1.344 0.938 0.12 0.071 0.245 0.082 0.375 0.031 0.713-0.579 1.463-0.621 2.25-0.125 0.597 0.412 0.888 0.985 0.875 1.719 0.588-0.026 1.172 0.005 1.75 0.094 0.139 0.144 0.243 0.311 0.313 0.5 0.193 0.102 0.391 0.196 0.594 0.281 0.207 0.352 0.363 0.727 0.469 1.125 0.223 0.063 0.421 0.167 0.594 0.313 0.010 0.146 0.021 0.292 0.031 0.438-0.566 6.711-1.16 13.42-1.781 20.125-0.080 0.342-0.278 0.446-0.594 0.313z"></path>
<path fill="#139023" style="fill: var(--color2, #139023)" d="M17.281 3.469c-0.042 0.438-0.083 0.875-0.125 1.313-0.734-1.264-1.818-2.077-3.25-2.438 0.355-0.594 0.876-0.855 1.563-0.781 0.151 0.104 0.266 0.239 0.344 0.406 0.103 0.307 0.187 0.62 0.25 0.938 0.182 0.181 0.401 0.233 0.656 0.156 0.25-0.292 0.5-0.583 0.75-0.875 0.519-0.235 1.008-0.182 1.469 0.156 0.179 0.24 0.252 0.511 0.219 0.813-0.542-0.010-1.084 0-1.625 0.031-0.141 0.047-0.224 0.14-0.25 0.281z"></path>
<path fill="#148e23" style="fill: var(--color3, #148e23)" d="M10.719 1.781c0.574-0.045 1.054 0.143 1.438 0.563-0.826 0.194-1.555 0.569-2.188 1.125-0.204-0.779 0.046-1.342 0.75-1.688z"></path>
<path fill="#ce0c19" style="fill: var(--color4, #ce0c19)" d="M12.531 3.219c2.008-0.012 3.393 0.904 4.156 2.75 0.050 0.13 0.040 0.255-0.031 0.375-0.48 0.183-0.949 0.391-1.406 0.625-1.708-0.882-3.51-1.475-5.406-1.781 0.589-1.079 1.485-1.736 2.688-1.969z"></path>
<path fill="#183a1c" style="fill: var(--color5, #183a1c)" d="M17.281 3.469c0.010 0.48 0 0.959-0.031 1.438-0.045-0.034-0.076-0.076-0.094-0.125 0.042-0.438 0.083-0.875 0.125-1.313z"></path>
<path fill="#73602e" style="fill: var(--color6, #73602e)" d="M18.219 4.094c-0.040 0.587 0.002 1.15 0.125 1.688-0.044 0.056-0.107 0.077-0.188 0.063-0.020-0.595 0-1.178 0.063-1.75z"></path>
<path fill="#facb4c" style="fill: var(--color7, #facb4c)" d="M18.219 4.094c0.979 0 1.958 0 2.938 0 0.019 0.412-0.001 0.818-0.063 1.219-0.933 0.077-1.849 0.233-2.75 0.469-0.123-0.538-0.165-1.1-0.125-1.688z"></path>
<path fill="#148e23" style="fill: var(--color3, #148e23)" d="M8.656 4.219c0.207-0.027 0.394 0.014 0.563 0.125-0.115 0.229-0.229 0.458-0.344 0.688-0.275 0.060-0.556 0.081-0.844 0.063 0.056-0.403 0.264-0.695 0.625-0.875z"></path>
<path fill="#157e22" style="fill: var(--color8, #157e22)" d="M22.094 4.781c0.112 0.12 0.175 0.266 0.188 0.438-0.063 0-0.125 0-0.188 0 0-0.146 0-0.292 0-0.438z"></path>
<path fill="#ea8d41" style="fill: var(--color9, #ea8d41)" d="M22.531 10.406c-3.3 0.463-6.123 1.858-8.469 4.188-1.385 1.458-2.218 3.187-2.5 5.188-0.031 3.542-0.042 7.083-0.031 10.625-0.583 0-1.167 0-1.75 0-0.010-4.958 0-9.917 0.031-14.875 0.071-0.732 0.238-1.44 0.5-2.125 0.393-0.838 0.82-1.651 1.281-2.438 0.001-0.131-0.041-0.245-0.125-0.344-0.247-0.131-0.486-0.121-0.719 0.031-0.148 0.24-0.304 0.469-0.469 0.688 0.011-0.083-0.010-0.156-0.063-0.219-0.692-0.227-1.401-0.383-2.125-0.469-0.146-1.54-0.271-3.081-0.375-4.625 2.294-0.009 4.46 0.501 6.5 1.531-0.507 0.319-0.996 0.663-1.469 1.031-0.188 0.624 0.031 0.864 0.656 0.719 2.796-2.13 5.963-3.182 9.5-3.156-0.136 1.415-0.261 2.832-0.375 4.25z"></path>
<path fill="#fba740" style="fill: var(--color10, #fba740)" d="M8.094 10.656c0.724 0.085 1.433 0.242 2.125 0.469 0.052 0.063 0.073 0.136 0.063 0.219-0.757 1.207-1.215 2.52-1.375 3.938-0.042 1.396-0.083 2.792-0.125 4.188-0.204-2.94-0.434-5.877-0.688-8.813z"></path>
<path fill="#fda940" style="fill: var(--color11, #fda940)" d="M22.531 10.406c-0.427 4.937-0.854 9.875-1.281 14.813-0.042 0.333-0.042 0.667 0 1 0.024 0.090 0.076 0.153 0.156 0.188-0.069 0.666-0.132 1.333-0.188 2-0.125 0.073-0.219 0.177-0.281 0.313-0.049 0.562-0.080 1.124-0.094 1.688-3.104 0-6.208 0-9.313 0-0.010-3.542 0-7.083 0.031-10.625 0.282-2 1.115-3.73 2.5-5.188 2.346-2.329 5.169-3.725 8.469-4.188z"></path>
<path fill="#c15801" style="fill: var(--color12, #c15801)" d="M19.281 13.156c0.702 0.003 0.962 0.336 0.781 1-0.377 0.41-0.752 0.41-1.125 0-0.186-0.44-0.071-0.773 0.344-1z"></path>
<path fill="#3e3020" style="fill: var(--color13, #3e3020)" d="M8.906 15.281c0.010 1.625 0 3.25-0.031 4.875-0.059-0.226-0.090-0.455-0.094-0.688 0.042-1.396 0.083-2.792 0.125-4.188z"></path>
<path fill="#c35901" style="fill: var(--color14, #c35901)" d="M16.531 21.156c0.617 0.022 0.877 0.335 0.781 0.938-0.24 0.368-0.563 0.462-0.969 0.281-0.45-0.488-0.388-0.894 0.188-1.219z"></path>
</symbol>
<symbol id="icon-menu-hamburger" viewBox="0 0 32 32">
<path fill="#fff" style="fill: var(--color1, #fff)" d="M26.733 14.667h-21.467c-0.7 0-1.267 0.567-1.267 1.267v0.133c0 0.7 0.567 1.267 1.267 1.267h21.467c0.7 0 1.267-0.567 1.267-1.267v-0.133c0-0.7-0.567-1.267-1.267-1.267z"></path>
<path fill="#fff" style="fill: var(--color1, #fff)" d="M26.733 21.333h-21.467c-0.7 0-1.267 0.567-1.267 1.267v0.133c0 0.7 0.567 1.267 1.267 1.267h21.467c0.7 0 1.267-0.567 1.267-1.267v-0.133c0-0.7-0.567-1.267-1.267-1.267z"></path>
<path fill="#fff" style="fill: var(--color1, #fff)" d="M26.733 8h-21.467c-0.7 0-1.267 0.567-1.267 1.267v0.133c0 0.7 0.567 1.267 1.267 1.267h21.467c0.7 0 1.267-0.567 1.267-1.267v-0.133c0-0.7-0.567-1.267-1.267-1.267z"></path>
</symbol>
<symbol id="icon-facebook-1" viewBox="0 0 16 32">
<path style="fill: var(--color1, #84a178)" d="M14.143 15.972h-4.034v14.865h-6.112v-14.865h-2.907v-5.224h2.907v-3.381c0-2.418 1.142-6.203 6.166-6.203l4.527 0.019v5.071h-3.285c-0.539 0-1.296 0.271-1.296 1.424v3.075h4.567l-0.534 5.219z"></path>
</symbol>
<symbol id="icon-telegram-1" viewBox="0 0 44 32">
<path style="fill: var(--color1, #84a178)" d="M17.344 21.048l-0.675 8.86c0.966 0 1.384-0.387 1.885-0.852l4.527-4.038 9.381 6.412c1.72 0.895 2.933 0.424 3.397-1.477l6.157-26.929 0.002-0.002c0.546-2.374-0.92-3.302-2.596-2.72l-36.194 12.933c-2.47 0.895-2.433 2.18-0.42 2.762l9.253 2.686 21.494-12.552c1.011-0.625 1.931-0.279 1.175 0.346l-17.386 14.57z"></path>
</symbol>
<symbol id="icon-github-1" viewBox="0 0 32 32">
<path style="fill: var(--color1, #84a178)" d="M16 0c-8.788 0-16 7.212-16 16 0 7.499 5.262 14.312 12.25 16v-5.293c-0.692 0.152-1.33 0.156-2.034-0.052-0.946-0.279-1.714-0.909-2.284-1.869-0.364-0.613-1.008-1.278-1.68-1.23l-0.165-1.868c1.453-0.124 2.711 0.886 3.457 2.14 0.332 0.558 0.713 0.884 1.203 1.029 0.473 0.14 0.982 0.072 1.574-0.137 0.149-1.186 0.692-1.63 1.102-2.255v-0.001c-4.167-0.622-5.828-2.832-6.488-4.578-0.874-2.317-0.405-5.212 1.14-7.041 0.030-0.036 0.084-0.129 0.063-0.194-0.708-2.139 0.155-3.909 0.187-4.097 0.817 0.242 0.95-0.243 3.551 1.337l0.449 0.27c0.188 0.112 0.129 0.048 0.317 0.034 1.086-0.295 2.23-0.458 3.358-0.472 1.136 0.015 2.273 0.178 3.404 0.484l0.145 0.015c-0.013-0.002 0.040-0.009 0.127-0.062 3.248-1.968 3.132-1.324 4.003-1.608 0.032 0.188 0.883 1.987 0.182 4.099-0.095 0.291 2.816 2.956 1.203 7.235-0.659 1.746-2.32 3.957-6.487 4.578v0.001c0.534 0.814 1.176 1.247 1.173 2.927v6.608c6.988-1.688 12.25-8.501 12.25-16 0-8.788-7.212-16-16-16v0z"></path>
</symbol>
</defs>
</svg>
