<svg aria-hidden="true" style="position: absolute; width: 0; height: 0; overflow: hidden;" version="1.1" xmlns="http://www.w3.org/2000/svg" xmlns:xlink="http://www.w3.org/1999/xlink">
<defs>
<symbol id="icon-kebab" viewBox="0 0 32 32">
<path d="M14.806 0.75c-0.406 0.119-0.963 0.481-1.269 0.825-0.219 0.238-0.381 0.363-0.469 0.363-0.081 0-0.281-0.125-0.469-0.294-0.731-0.662-1.656-0.844-2.394-0.463-0.363 0.181-0.794 0.681-0.95 1.087-0.069 0.2-0.131 0.4-0.131 0.456 0 0.050-0.031 0.2-0.075 0.331-0.063 0.2-0.113 0.25-0.325 0.306-0.606 0.169-1.394 0.925-1.544 1.469-0.037 0.144-0.094 0.306-0.125 0.356-0.237 0.406-0.244 0.237 0.044 3.625 0.15 1.769 0.275 3.469 0.275 3.781 0.006 0.306 0.037 0.731 0.063 0.938 0.056 0.363 0.237 2.275 0.375 3.906 0.037 0.431 0.112 1.087 0.162 1.462 0.056 0.369 0.088 0.781 0.075 0.906-0.019 0.125-0.006 0.3 0.019 0.4 0.063 0.225 0.225 2.275 0.275 3.425 0.019 0.5 0.063 1.006 0.094 1.125 0.081 0.275 0.313 3.038 0.313 3.719 0 0.288 0.025 0.575 0.063 0.637 0.031 0.056 0.081 0.469 0.119 0.913 0.044 0.637 0.081 0.837 0.175 0.969 0.256 0.337 0.137 0.331 6.338 0.306 5.35-0.025 5.738-0.031 5.894-0.131 0.094-0.063 0.188-0.163 0.206-0.219 0.025-0.056 0.063-0.119 0.087-0.137s0.081-0.519 0.125-1.113c0.094-1.275 0.087-1.294-0.462-1.269-0.244 0.006-0.331 0.256-0.387 1.069-0.019 0.363-0.056 0.719-0.075 0.794l-0.031 0.144h-10.925v-7.456c0-6.575 0.012-7.531 0.1-8.050 0.188-1.1 0.681-2.3 1.344-3.287 0.369-0.537 0.4-0.806 0.144-1.012-0.363-0.287-0.594-0.137-1.119 0.713-0.631 1.012-1.025 1.969-1.294 3.125-0.113 0.488-0.137 0.85-0.169 2.781l-0.037 2.219-0.363-4.469c-0.206-2.456-0.45-5.456-0.55-6.656-0.1-1.206-0.181-2.213-0.181-2.244 0-0.056 0.913-0.013 1.844 0.094 1.319 0.15 2.988 0.606 4.081 1.119 0.281 0.131 0.512 0.256 0.512 0.269s-0.188 0.15-0.419 0.306c-0.238 0.156-0.575 0.4-0.75 0.544-0.3 0.231-0.331 0.281-0.331 0.506 0 0.188 0.037 0.269 0.162 0.369 0.219 0.169 0.394 0.162 0.656-0.025 2.688-1.938 5.188-2.831 8.431-3.025 0.531-0.031 0.975-0.056 0.981-0.050s-0.075 0.938-0.169 2.075c-1.050 12.012-1.506 17.369-1.519 17.637-0.012 0.381 0.075 0.506 0.387 0.531 0.406 0.038 0.419-0.031 0.694-3.181 0.137-1.538 0.525-6.031 0.875-9.988 0.344-3.95 0.625-7.3 0.625-7.444 0-0.294-0.113-0.425-0.419-0.494-0.175-0.031-0.212-0.081-0.275-0.3-0.038-0.144-0.15-0.419-0.256-0.606-0.15-0.275-0.244-0.369-0.469-0.469-0.2-0.087-0.313-0.188-0.387-0.344-0.15-0.325-0.313-0.375-1.175-0.375h-0.756l-0.038-0.175c-0.019-0.094-0.050-0.288-0.069-0.431-0.106-0.706-0.887-1.35-1.75-1.438-0.387-0.038-0.813 0.081-1.131 0.325-0.256 0.2-0.481 0.206-0.569 0.012-0.281-0.619-1.081-0.988-1.713-0.794zM21.188 4.713v0.588l-0.544 0.075c-0.644 0.088-2.031 0.356-2.244 0.438l-0.15 0.063v-1.75h2.938v0.588z"></path>
<path d="M19.2 13.313c-0.512 0.313-0.356 1.075 0.244 1.162 0.488 0.069 0.875-0.475 0.65-0.906-0.094-0.188-0.406-0.381-0.606-0.381-0.044 0-0.175 0.056-0.288 0.125z"></path>
<path d="M16.294 21.425c-0.181 0.188-0.225 0.538-0.106 0.769 0.081 0.137 0.381 0.306 0.563 0.306 0.544 0 0.825-0.681 0.444-1.069-0.256-0.256-0.656-0.256-0.9-0.006z"></path>
</symbol>
<symbol id="icon-menu-hamburger" viewBox="0 0 32 32">
<path fill="#fff" style="fill: var(--color1, #fff)" d="M26.733 14.667h-21.467c-0.7 0-1.267 0.567-1.267 1.267v0.133c0 0.7 0.567 1.267 1.267 1.267h21.467c0.7 0 1.267-0.567 1.267-1.267v-0.133c0-0.7-0.567-1.267-1.267-1.267z"></path>
<path fill="#fff" style="fill: var(--color1, #fff)" d="M26.733 21.333h-21.467c-0.7 0-1.267 0.567-1.267 1.267v0.133c0 0.7 0.567 1.267 1.267 1.267h21.467c0.7 0 1.267-0.567 1.267-1.267v-0.133c0-0.7-0.567-1.267-1.267-1.267z"></path>
<path fill="#fff" style="fill: var(--color1, #fff)" d="M26.733 8h-21.467c-0.7 0-1.267 0.567-1.267 1.267v0.133c0 0.7 0.567 1.267 1.267 1.267h21.467c0.7 0 1.267-0.567 1.267-1.267v-0.133c0-0.7-0.567-1.267-1.267-1.267z"></path>
</symbol>
</defs>
</svg>
